<?xml version="1.0" standalone="no"?>
<!DOCTYPE svg PUBLIC "-//W3C//DTD SVG 20010904//EN"
 "http://www.w3.org/TR/2001/REC-SVG-20010904/DTD/svg10.dtd">
<svg version="1.0" xmlns="http://www.w3.org/2000/svg"
 width="128.000000pt" height="128.000000pt" viewBox="0 0 128.000000 128.000000"
 preserveAspectRatio="xMidYMid meet">

<g transform="translate(0.000000,128.000000) scale(0.100000,-0.100000)"
fill="#000000" stroke="none">
<path d="M1100 1069 c-14 -5 -161 -146 -327 -312 l-303 -301 -137 136 c-144
142 -169 157 -233 143 -65 -14 -112 -95 -95 -162 4 -18 79 -101 208 -231 l203
-202 51 0 c69 0 80 9 474 406 345 347 349 353 335 428 -7 37 -47 79 -89 95
-34 13 -54 13 -87 0z"/>
</g>
</svg>
