<?xml version="1.0" encoding="UTF-8"?>
<!DOCTYPE svg PUBLIC "-//W3C//DTD SVG 1.1//EN" "http://www.w3.org/Graphics/SVG/1.1/DTD/svg11.dtd">
<svg xmlns="http://www.w3.org/2000/svg" version="1.1" width="512px" height="512px" style="shape-rendering:geometricPrecision; text-rendering:geometricPrecision; image-rendering:optimizeQuality; fill-rule:evenodd; clip-rule:evenodd" xmlns:xlink="http://www.w3.org/1999/xlink">
<g><path style="opacity:0.965" fill="#3d6ceb" d="M 251.5,10.5 C 266.632,9.80829 275.798,16.8083 279,31.5C 279.667,64.5 279.667,97.5 279,130.5C 274.773,147.034 264.273,153.534 247.5,150C 238.605,146.441 233.439,139.941 232,130.5C 231.333,97.5 231.333,64.5 232,31.5C 234.233,20.4367 240.733,13.4367 251.5,10.5 Z"/></g>
<g><path style="opacity:0.963" fill="#5286fa" d="M 88.5,78.5 C 95.6598,78.3862 101.993,80.5529 107.5,85C 131.028,108.195 154.195,131.695 177,155.5C 184.779,175.943 177.946,188.276 156.5,192.5C 151,191.945 146,190.112 141.5,187C 118.333,163.833 95.1667,140.667 72,117.5C 63.74,102.581 66.5733,90.414 80.5,81C 83.3102,80.2177 85.9768,79.3844 88.5,78.5 Z"/></g>
<g><path style="opacity:0.963" fill="#355dc9" d="M 417.5,78.5 C 436.519,79.531 445.019,89.531 443,108.5C 441.941,111.618 440.608,114.618 439,117.5C 415.833,140.667 392.667,163.833 369.5,187C 356.185,195.087 344.352,193.254 334,181.5C 329.336,172.821 329.336,164.154 334,155.5C 358.197,129.636 383.364,104.803 409.5,81C 412.31,80.2177 414.977,79.3844 417.5,78.5 Z"/></g>
<g><path style="opacity:0.98" fill="#73a1fb" d="M -0.5,273.5 C -0.5,269.167 -0.5,264.833 -0.5,260.5C 2.75287,252.083 8.75287,246.583 17.5,244C 52.1667,243.333 86.8333,243.333 121.5,244C 135.087,248.665 140.92,258.165 139,272.5C 136.596,281.237 131.096,287.071 122.5,290C 87.1667,290.667 51.8333,290.667 16.5,290C 7.68025,287.617 2.01359,282.117 -0.5,273.5 Z"/></g>
<g><path style="opacity:0.98" fill="#2d4fa7" d="M 511.5,260.5 C 511.5,264.833 511.5,269.167 511.5,273.5C 508.986,282.117 503.32,287.617 494.5,290C 459.167,290.667 423.833,290.667 388.5,290C 375.446,284.932 369.946,275.432 372,261.5C 374.5,252.333 380.333,246.5 389.5,244C 424.167,243.333 458.833,243.333 493.5,244C 502.247,246.583 508.247,252.083 511.5,260.5 Z"/></g>
<g><path style="opacity:0.963" fill="#c3d9fc" d="M 150.5,342.5 C 168.075,340.419 178.075,348.086 180.5,365.5C 180.505,371.486 178.672,376.819 175,381.5C 152.167,404.333 129.333,427.167 106.5,450C 94.0548,458.136 82.5548,456.969 72,446.5C 66.4638,437.384 66.1305,428.051 71,418.5C 93.4716,395.028 116.305,371.861 139.5,349C 142.933,346.289 146.6,344.123 150.5,342.5 Z"/></g>
<g><path style="opacity:0.961" fill="#c3d9fc" d="M 249.5,406.5 C 265.231,404.763 275.065,411.43 279,426.5C 279.936,445.877 279.603,465.21 278,484.5C 269.636,500.301 257.469,504.134 241.5,496C 236.133,491.765 232.966,486.265 232,479.5C 231.333,461.833 231.333,444.167 232,426.5C 233.916,416.293 239.75,409.626 249.5,406.5 Z"/></g>
</svg>
