<?xml version="1.0" encoding="UTF-8"?>
<!DOCTYPE svg PUBLIC "-//W3C//DTD SVG 1.1//EN" "http://www.w3.org/Graphics/SVG/1.1/DTD/svg11.dtd">
<svg xmlns="http://www.w3.org/2000/svg" version="1.1" width="512px" height="512px" style="shape-rendering:geometricPrecision; text-rendering:geometricPrecision; image-rendering:optimizeQuality; fill-rule:evenodd; clip-rule:evenodd" xmlns:xlink="http://www.w3.org/1999/xlink">
<g><path style="opacity:1" fill="#0290f6" d="M 233.5,-0.5 C 248.5,-0.5 263.5,-0.5 278.5,-0.5C 368.144,10.3879 435.644,54.7213 481,132.5C 497.695,163.971 507.861,197.304 511.5,232.5C 511.5,247.5 511.5,262.5 511.5,277.5C 499.016,377.807 447.016,449.307 355.5,492C 330.316,502.296 304.316,508.796 277.5,511.5C 262.5,511.5 247.5,511.5 232.5,511.5C 132.727,498.549 61.5605,446.549 19,355.5C 8.86452,330.623 2.36452,304.957 -0.5,278.5C -0.5,263.167 -0.5,247.833 -0.5,232.5C 9.30698,148.242 49.6403,83.0754 120.5,37C 155.422,15.9704 193.088,3.4704 233.5,-0.5 Z"/></g>
<g><path style="opacity:1" fill="#fefffe" d="M 250.5,95.5 C 262.662,94.1664 269.829,99.4997 272,111.5C 272.17,117.196 272.67,122.862 273.5,128.5C 318.552,139.718 345.719,168.052 355,213.5C 355.511,228.337 355.344,243.171 354.5,258C 353.316,267.798 355.15,276.965 360,285.5C 365.667,293.833 371.333,302.167 377,310.5C 388.794,335.818 383.961,357.318 362.5,375C 356.76,379.026 350.426,381.693 343.5,383C 330.204,384.332 316.871,384.832 303.5,384.5C 301.866,407.309 290.2,422.476 268.5,430C 239.522,435.014 219.689,423.847 209,396.5C 207.844,392.582 207.344,388.582 207.5,384.5C 194.129,384.832 180.796,384.332 167.5,383C 139.556,375.051 126.39,356.551 128,327.5C 129.006,321.482 131.006,315.816 134,310.5C 141.925,300.984 148.592,290.651 154,279.5C 154.18,257.482 154.846,235.482 156,213.5C 165.281,168.052 192.448,139.718 237.5,128.5C 238.197,121.143 239.03,113.81 240,106.5C 242.357,101.645 245.857,97.9788 250.5,95.5 Z"/></g>
<g><path style="opacity:1" fill="#0290f7" d="M 243.5,160.5 C 273.012,157.182 296.178,167.515 313,191.5C 317.384,198.984 320.384,206.984 322,215.5C 322.333,235.833 322.667,256.167 323,276.5C 323.928,284.284 326.262,291.618 330,298.5C 337.061,308.564 343.727,318.898 350,329.5C 352.182,337.621 350.016,344.121 343.5,349C 285.891,350.655 228.225,350.988 170.5,350C 161.617,346.084 158.45,339.251 161,329.5C 167.417,318.997 174.084,308.663 181,298.5C 183.562,293.376 185.562,288.043 187,282.5C 188.23,260.193 188.896,237.86 189,215.5C 195.347,185.32 213.514,166.987 243.5,160.5 Z"/></g>
<g><path style="opacity:1" fill="#0290f7" d="M 240.5,384.5 C 250.5,384.5 260.5,384.5 270.5,384.5C 270.027,393.972 265.027,398.639 255.5,398.5C 245.973,398.639 240.973,393.972 240.5,384.5 Z"/></g>
</svg>
