<?xml version="1.0" encoding="UTF-8"?>
<!DOCTYPE svg PUBLIC "-//W3C//DTD SVG 1.1//EN" "http://www.w3.org/Graphics/SVG/1.1/DTD/svg11.dtd">
<svg xmlns="http://www.w3.org/2000/svg" version="1.1" width="512px" height="512px" style="shape-rendering:geometricPrecision; text-rendering:geometricPrecision; image-rendering:optimizeQuality; fill-rule:evenodd; clip-rule:evenodd" xmlns:xlink="http://www.w3.org/1999/xlink">
<g><path style="opacity:0.996" fill="#ffc048" d="M 236.5,26.5 C 321.894,22.4574 390.394,54.1241 442,121.5C 484.015,183.261 495.015,250.261 475,322.5C 449.5,398.667 398.667,449.5 322.5,475C 243.772,496.33 172.439,481.997 108.5,432C 46.8226,377.432 19.9892,308.932 28,226.5C 41.6946,140.831 87.8612,79.9978 166.5,44C 189.117,34.7827 212.45,28.9493 236.5,26.5 Z"/></g>
<g><path style="opacity:1" fill="#fffefe" d="M 249.5,90.5 C 274.124,89.6319 289.957,100.965 297,124.5C 297.667,131.833 297.667,139.167 297,146.5C 293.092,202.212 288.759,257.879 284,313.5C 283.167,314.333 282.333,315.167 281.5,316C 264.167,316.667 246.833,316.667 229.5,316C 227.114,314.113 225.947,311.613 226,308.5C 222,254.5 218,200.5 214,146.5C 209.895,117.485 221.729,98.8178 249.5,90.5 Z"/></g>
<g><path style="opacity:1" fill="#fffefe" d="M 251.5,350.5 C 272.079,350.581 284.913,360.581 290,380.5C 291.046,400.786 281.879,413.953 262.5,420C 240.766,421.924 226.933,412.424 221,391.5C 219.9,369.435 230.067,355.768 251.5,350.5 Z"/></g>
</svg>
